PathFileType	3	(X/Y/Z)	D:\minhoCalibration\240510\subject3_KPNP\preferred\preferred11.trc
DataRate	CameraRate	NumFrames	NumMarkers	Units	OrigDataRate	OrigDataStartFrame	OrigNumFrames
200.0	200.0	21	10	mm	200.0	182	126	
Frame#	Time	Left_Ankle_Outer1			Left_Ankle_Inner1			Left_Knee_Outer1			Left_Knee_Inner1			Left_Wrist1			Right_Wrist1			Right_Knee_Inner1			Right_Knee_Outer1			Right_Ankle_Inner1			Right_Ankle_Outer1			
		X1	Y1	Z1	X2	Y2	Z2	X3	Y3	Z3	X4	Y4	Z4	X5	Y5	Z5	X6	Y6	Z6	X7	Y7	Z7	X8	Y8	Z8	X9	Y9	Z9	X10	Y10	Z10	
182	0.9	-328.58466	124.73462	-497.78656	-377.57263	145.13031	-473.16367	-142.4879	518.7182	-431.67242	-206.98798	539.37958	-351.77625	-140.61964	896.84027	-662.53558	-388.45016	1078.1321	-440.37006	-415.96921	819.11951	-70.677261	-472.56448	937.42102	-75.361137	-731.60962	673.65155	-313.76788	-791.29797	753.2511	-281.80768
183	0.905	-328.46674	125.31876	-496.47803	-376.98883	145.94383	-471.93613	-141.43748	518.78748	-432.69	-203.78415	539.57703	-351.0047	-144.10176	895.82568	-667.48254	-384.17035	1083.0518	-440.3996	-399.59479	839.45917	-61.608845	-451.31076	956.95801	-69.558784	-737.34912	688.96204	-273.56073	-792.80426	770.98798	-240.23764
184	0.91	-327.54147	126.24751	-495.9454	-376.33545	146.58199	-471.02768	-140.58167	518.86505	-433.22687	-201.60551	539.95734	-350.15726	-147.18147	895.06769	-672.40729	-379.63577	1086.7169	-441.6142	-382.90585	859.43756	-54.414482	-430.35461	975.4306	-65.217072	-741.93628	704.27057	-228.76697	-792.44757	789.92474	-197.59521
185	0.915	-326.76392	126.55829	-495.62561	-375.67609	146.98363	-470.41476	-139.85551	518.7713	-433.39072	-200.25156	539.93408	-349.53647	-150.57921	894.00061	-676.90143	-375.66336	1091.0988	-441.26474	-368.01529	878.01855	-48.66848	-410.30353	993.20715	-62.721916	-744.57465	720.82495	-181.79146	-789.8468	809.74719	-153.60249
186	0.92	-326.18176	126.68459	-495.12173	-374.97806	147.14877	-470.07562	-139.29352	518.71692	-433.05304	-199.34843	540.34039	-348.58786	-155.06708	892.67059	-680.47363	-372.15015	1094.6323	-441.78357	-351.6553	895.97321	-44.777763	-391.22192	1009.8382	-62.278076	-743.32544	738.89032	-133.98987	-784.56525	830.41925	-109.03839
187	0.925	-326.02631	126.40517	-494.27628	-374.224	147.19296	-469.83301	-138.99738	518.61877	-432.07336	-199.12616	540.46576	-347.50562	-158.18979	891.05585	-684.35376	-368.15601	1097.7969	-442.93353	-335.90143	913.0592	-43.140522	-372.51297	1024.924	-63.765362	-738.64435	758.94	-85.133354	-776.31348	852.5022	-63.505791
188	0.93	-324.31723	126.79488	-494.68881	-373.46912	147.17026	-469.72574	-138.83566	518.52313	-430.73727	-199.6257	540.21436	-346.59427	-162.44418	889.06781	-686.99207	-364.71442	1100.8722	-444.06702	-322.47882	928.47662	-43.018303	-355.72501	1038.6786	-66.274635	-730.60272	779.71442	-36.556263	-764.92902	874.65717	-17.81649
189	0.935	-323.70258	126.57735	-494.42242	-372.70416	146.98988	-469.65143	-138.80902	518.40979	-428.95267	-200.51697	540.13177	-345.43689	-166.71143	886.75409	-689.04486	-361.71295	1103.3333	-445.32458	-310.42035	942.16638	-44.194569	-340.15903	1051.1965	-70.318886	-718.36682	801.61804	10.051591	-748.98395	897.67834	25.891722
190	0.94	-323.0282	126.47043	-494.07413	-372.12845	146.89638	-469.65967	-138.98111	518.11481	-427.01782	-200.73924	540.44653	-343.99429	-170.58492	884.18524	-690.48792	-358.96347	1105.2026	-446.8476	-300.01538	954.41632	-46.169121	-325.98886	1062.1108	-75.694786	-702.90991	826.66681	60.543121	-731.08191	923.35803	73.809235
191	0.945	-322.37183	126.33813	-493.91959	-371.65063	146.70816	-469.73514	-139.0862	517.99139	-424.95322	-201.76764	540.42792	-342.88257	-174.21359	881.2818	-691.20905	-356.83768	1106.8453	-448.6904	-291.14435	965.47314	-49.025391	-313.94559	1070.9656	-82.064819	-681.79486	851.58008	107.69792	-706.34064	948.91534	117.93912
192	0.95	-322.7356	125.73086	-493.21487	-371.29877	146.55656	-469.77249	-139.49107	517.79102	-422.74664	-203.3614	539.83063	-341.61108	-177.61469	878.0152	-691.22955	-354.86267	1108.4602	-451.19772	-284.45578	975.11218	-51.803947	-304.58115	1078.1704	-88.620941	-654.08838	878.84045	155.65187	-676.92932	977.1347	161.86137
193	0.955	-321.8132	126.1965	-493.38977	-371.18195	146.50209	-469.74039	-139.89777	517.50262	-420.53641	-204.43445	539.60541	-340.39059	-180.36801	874.62488	-690.79871	-353.58817	1109.4169	-454.11414	-279.74057	983.44153	-54.926212	-298.47964	1083.4034	-95.016327	-622.36316	907.66711	201.09485	-642.38312	1007.2181	202.96568
194	0.96	-321.78339	126.2369	-493.15903	-371.18097	146.3573	-469.65771	-140.38612	517.38867	-418.39557	-205.65552	539.3819	-338.81943	-182.77074	871.31219	-689.58002	-352.34143	1109.6871	-457.17856	-276.71365	990.45587	-58.227219	-294.58463	1087.0978	-101.18819	-585.67133	937.83875	242.98109	-603.966	1038.3259	239.927
195	0.965	-321.92651	126.28983	-492.95157	-371.52396	146.39648	-469.50491	-141.07387	517.18732	-416.34033	-206.6927	539.2605	-337.02383	-184.71198	868.23468	-687.64911	-352.62347	1110.036	-460.90762	-275.23227	996.19952	-61.464165	-292.67001	1089.4058	-106.63024	-543.93341	968.15527	279.58771	-560.47156	1069.4293	271.55359
196	0.97	-322.34125	126.34715	-492.72543	-372.09152	146.33263	-469.41635	-141.62331	517.05389	-414.50897	-208.45724	539.17035	-335.17923	-186.46437	865.50238	-684.82825	-353.11246	1109.7551	-464.4129	-274.98038	1000.7628	-64.1716	-292.67267	1090.7449	-110.9585	-495.72842	999.4198	309.75363	-513.70502	1099.3024	296.2048
197	0.975	-322.84409	126.52171	-492.51385	-372.66519	146.21147	-469.21512	-142.4841	517.00177	-412.56509	-208.52116	539.2818	-333.44406	-187.83669	863.45612	-681.17151	-355.09995	1110.3312	-467.43848	-274.7952	1004.4931	-66.118324	-293.99435	1091.4332	-114.49957	-443.97025	1029.218	330.9711	-463.70551	1126.6525	312.20328
198	0.98	-323.48981	126.5584	-492.36414	-373.45963	146.1174	-469.09866	-143.23775	516.95844	-410.97217	-210.35344	538.57654	-331.83008	-188.96526	861.92029	-676.55896	-357.43777	1111.5814	-468.98395	-275.40576	1007.7798	-68.068604	-298.41855	1091.774	-116.93005	-393.78247	1055.85	337.82254	-412.0639	1152.9355	315.53394
199	0.985	-324.49478	126.40111	-492.18369	-374.12628	146.03358	-468.91418	-144.24715	516.91821	-409.28354	-211.54878	538.33044	-329.81985	-189.72562	861.05737	-671.20569	-360.73184	1113.573	-469.71704	-275.45035	1010.4723	-70.307396	-304.02789	1093.4821	-118.4323	-368.48962	1074.5731	337.02658	-378.74539	1174.2279	309.43265
200	0.99	-325.16006	126.43899	-492.25162	-375.02686	145.7684	-468.84094	-145.17955	516.91119	-407.63428	-212.31619	537.84149	-328.19302	-190.25777	860.86047	-665.052	-365.16843	1115.7992	-470.22528	-274.29822	1012.2408	-72.554253	-310.48071	1098.5911	-120.03588	-362.01553	1091.8928	339.26703	-359.50037	1188.3528	303.35437
201	0.995	-326.76624	125.61463	-491.94601	-375.90518	145.39992	-469.03799	-146.2025	516.72424	-405.83484	-213.53389	537.23517	-325.57022	-190.27357	861.00793	-658.39001	-368.48691	1116.8595	-470.35687	-271.2648	1012.8636	-74.166321	-316.30188	1102.9845	-121.61797	-361.80435	1099.0883	336.36646	-354.26926	1195.6158	301.22406
202	1	-326.46869	125.79033	-492.60941	-376.52881	144.80536	-469.43945	-147.44112	516.41724	-403.75821	-214.39865	536.5744	-323.2326	-189.59558	861.27405	-651.35138	-373.03888	1117.4794	-470.36447	-266.78519	1014.379	-74.438553	-319.46445	1108.1774	-123.66765	-361.34033	1093.6299	330.19302	-353.1152	1195.4854	302.72961
